<svg width="400" height="400" viewBox="0 0 400 400" fill="none" xmlns="http://www.w3.org/2000/svg">
<g clip-path="url(#clip0)">
<rect width="400" height="400" rx="200" fill="#4A5568"/>
<path d="M350 404C350 379.049 346.12 354.342 338.582 331.29C331.044 308.238 319.995 287.293 306.066 269.65C292.137 252.007 275.601 238.011 257.403 228.463C239.204 218.914 219.698 214 200 214C180.302 214 160.796 218.914 142.597 228.463C124.399 238.011 107.863 252.007 93.934 269.65C80.0052 287.293 68.9563 308.238 61.4181 331.29C53.8799 354.342 50 379.049 50 404L200 404H350Z" fill="white"/>
<circle cx="199.5" cy="117.5" r="82.5" fill="white"/>
</g>
<defs>
<clipPath id="clip0">
<rect width="400" height="400" rx="200" fill="white"/>
</clipPath>
</defs>
</svg>
